<?xml version="1.0" encoding="UTF-8"?>
<svg width="30px" height="30px" viewBox="0 0 30 30" version="1.1" xmlns="http://www.w3.org/2000/svg" xmlns:xlink="http://www.w3.org/1999/xlink">
    <title>0C3215A0-F17E-494C-BD25-73500466B96C@3x</title>
    <g id="Page-1" stroke="none" stroke-width="1" fill="none" fill-rule="evenodd">
        <g id="Screen_2" transform="translate(-732.000000, -419.000000)">
            <g id="Group-6" transform="translate(699.000000, 403.000000)">
                <g id="ICN_SUCCESS" transform="translate(33.000000, 16.000000)">
                    <rect id="Rectangle" fill="#36B834" x="0" y="0" width="30" height="30" rx="15"></rect>
                    <g id="Group-4" transform="translate(8.250000, 10.500000)" stroke="#FFFFFF" stroke-width="1.07142857">
                        <path d="M2.85052229,1.24686615 C3.14638912,1.24686615 3.38623658,1.4867136 3.38623658,1.78258043 L3.38623658,7.8579627 C3.38623658,7.96307269 3.35531577,8.06586039 3.2973248,8.15352542 L2.93502556,8.70121361 C2.85723076,8.81881609 2.69882998,8.8510866 2.5812275,8.77329181 C2.51132625,8.72705168 2.46857111,8.64944899 2.46683059,8.56565576 L2.32593322,1.7824649 C2.31991523,1.49274236 2.54990322,1.25299729 2.83962576,1.2469793 C2.84325745,1.24690387 2.84688982,1.24686615 2.85052229,1.24686615 Z" id="Rectangle" transform="translate(2.850522, 5.315088) rotate(-34.000000) translate(-2.850522, -5.315088) "></path>
                        <path d="M9.0675777,-1.65599949 C9.36329797,-1.65599949 9.60302662,-1.41627085 9.60302662,-1.12055057 C9.60302662,-1.12046214 9.60302659,-1.12037371 9.60302655,-1.12028527 L9.59771042,9.60911999 C9.59758491,9.86242374 9.39213991,10.0676653 9.13883617,10.0675398 C9.11951251,10.0675302 9.10020877,10.0662994 9.08104037,10.0638548 L9.03124516,10.0575042 C8.76431643,10.0234618 8.56406229,9.79668999 8.56330575,9.52760029 L8.53336955,-1.12028733 C8.53254007,-1.41532234 8.77104077,-1.6551679 9.06607579,-1.65599738 C9.06657642,-1.65599879 9.06707706,-1.65599949 9.0675777,-1.65599949 Z" id="Rectangle" stroke-linejoin="round" transform="translate(9.067578, 4.236858) rotate(-309.000000) translate(-9.067578, -4.236858) "></path>
                    </g>
                </g>
            </g>
        </g>
    </g>
</svg>